<svg xmlns="http://www.w3.org/2000/svg" width="24" height="24" viewBox="0 0 24 24">
  <g id="Icon_ionic-md-images" data-name="Icon ionic-md-images" transform="translate(-2.252 -4.502)">
    <path id="Path_9758" data-name="Path 9758" d="M25.051,9.263l-4.42-.25L20.374,5.65a1.162,1.162,0,0,0-1.227-1.144L3.3,6.025A1.222,1.222,0,0,0,2.256,7.382L3.392,22.119a1.165,1.165,0,0,0,1.227,1.144l.8-.075L5.293,26.05a1.344,1.344,0,0,0,1.2,1.469l17.684.981a1.307,1.307,0,0,0,1.329-1.325l.745-16.456A1.335,1.335,0,0,0,25.051,9.263ZM6.038,9.594l-.38,8.425L4.72,19.563,3.858,8.438V8.375a.632.632,0,0,1,.514-.588L18.354,6.45a.537.537,0,0,1,.563.494c0,.012.016.012.016.025s.016.013.016.025l.145,1.925L7.361,8.263A1.317,1.317,0,0,0,6.038,9.594ZM23.931,24.4l-4.543-6.219-2,2.144-3.707-5.05L7.1,23.444,7.661,11v-.025a.636.636,0,0,1,.638-.563l15.6.875a.621.621,0,0,1,.557.638c0,.013.016.019.016.031Z" transform="translate(0)" fill="#09e099"/>
    <path id="Path_9759" data-name="Path 9759" d="M27,18a2.25,2.25,0,1,0-2.25-2.25A2.257,2.257,0,0,0,27,18Z" transform="translate(-7.499 -1.2)" fill="#09e099"/>
  </g>
</svg>
