<svg xmlns="http://www.w3.org/2000/svg" width="24" height="24" viewBox="0 0 24 24">
  <g id="Group_386" data-name="Group 386" transform="translate(-272 -16)">
    <g id="Icon_Favorite_Filled" data-name="Icon / Favorite / Filled" transform="translate(272 16)">
      <rect id="Box" width="24" height="24" fill="none"/>
    </g>
    <path id="Path_2382" data-name="Path 2382" d="M12,22a2.006,2.006,0,0,0,2-2H10A2.006,2.006,0,0,0,12,22Zm6-6V11c0-3.07-1.63-5.64-4.5-6.32V4a1.5,1.5,0,0,0-3,0v.68C7.64,5.36,6,7.92,6,11v5L4,18v1H20V18Zm-2,1H8V11c0-2.48,1.51-4.5,4-4.5s4,2.02,4,4.5Z" transform="translate(272 15.5)" fill="#fff"/>
    <g id="Ellipse_712" data-name="Ellipse 712" transform="translate(283 16)" fill="#4654ea" stroke="#030405" stroke-width="2">
      <circle cx="6" cy="6" r="6" stroke="none"/>
      <circle cx="6" cy="6" r="5" fill="none"/>
    </g>
  </g>
</svg>
