<?xml version="1.0" encoding="UTF-8"?>
<svg width="166px" height="49px" viewBox="0 0 166 49" version="1.1" xmlns="http://www.w3.org/2000/svg" xmlns:xlink="http://www.w3.org/1999/xlink">
    <title>google_play_de</title>
    <defs>
        <linearGradient x1="61.231376%" y1="4.8388%" x2="26.323984%" y2="71.9684%" id="linearGradient-1">
            <stop stop-color="#00A0FF" offset="0%"></stop>
            <stop stop-color="#00A1FF" offset="0.657445%"></stop>
            <stop stop-color="#00BEFF" offset="26.01%"></stop>
            <stop stop-color="#00D2FF" offset="51.22%"></stop>
            <stop stop-color="#00DFFF" offset="76.04%"></stop>
            <stop stop-color="#00E3FF" offset="100%"></stop>
        </linearGradient>
        <linearGradient x1="107.728079%" y1="49.4282353%" x2="-130.665025%" y2="49.4282353%" id="linearGradient-2">
            <stop stop-color="#FFE000" offset="0%"></stop>
            <stop stop-color="#FFBD00" offset="40.87%"></stop>
            <stop stop-color="#FFA500" offset="77.54%"></stop>
            <stop stop-color="#FF9C00" offset="100%"></stop>
        </linearGradient>
        <linearGradient x1="86.3892216%" y1="30.8297553%" x2="-49.888024%" y2="136.004321%" id="linearGradient-3">
            <stop stop-color="#FF3A44" offset="0%"></stop>
            <stop stop-color="#C31162" offset="100%"></stop>
        </linearGradient>
        <linearGradient x1="-18.5790419%" y1="-11.6823797%" x2="42.2748503%" y2="35.0643382%" id="linearGradient-4">
            <stop stop-color="#32A071" offset="0%"></stop>
            <stop stop-color="#2DA771" offset="6.85%"></stop>
            <stop stop-color="#15CF74" offset="47.62%"></stop>
            <stop stop-color="#06E775" offset="80.09%"></stop>
            <stop stop-color="#00F076" offset="100%"></stop>
        </linearGradient>
    </defs>
    <g id="DETAIL-//-Safari-userflow" stroke="none" stroke-width="1" fill="none" fill-rule="evenodd">
        <g id="08-//-download-app" transform="translate(-38.000000, -747.000000)" fill-rule="nonzero">
            <g id="google_play_de" transform="translate(38.000000, 747.000000)">
                <g id="Group">
                    <path d="M159.25,49 L6.125,49 C2.695,49 0,46.305 0,42.875 L0,6.125 C0,2.695 2.695,0 6.125,0 L159.25,0 C162.68,0 165.375,2.695 165.375,6.125 L165.375,42.875 C165.375,46.1825 162.68,49 159.25,49 Z" id="Path" fill="#000000"></path>
                    <path d="M159.25,0.98 C162.0675,0.98 164.395,3.3075 164.395,6.125 L164.395,42.875 C164.395,45.6925 162.0675,48.02 159.25,48.02 L6.125,48.02 C3.3075,48.02 0.98,45.6925 0.98,42.875 L0.98,6.125 C0.98,3.3075 3.3075,0.98 6.125,0.98 L159.25,0.98 M159.25,0 L6.125,0 C2.695,0 0,2.695 0,6.125 L0,42.875 C0,46.305 2.695,49 6.125,49 L159.25,49 C162.68,49 165.375,46.305 165.375,42.875 L165.375,6.125 C165.375,2.8175 162.68,0 159.25,0 L159.25,0 Z" id="Shape" fill="#A6A6A6"></path>
                    <path d="M83.4225,26.705 C80.4825,26.705 78.155,28.91 78.155,31.9725 C78.155,34.9125 80.4825,37.24 83.4225,37.24 C86.3625,37.24 88.69,35.035 88.69,31.9725 C88.69,28.7875 86.3625,26.705 83.4225,26.705 Z M83.4225,35.035 C81.83,35.035 80.4825,33.6875 80.4825,31.85 C80.4825,30.0125 81.83,28.665 83.4225,28.665 C85.015,28.665 86.3625,29.89 86.3625,31.85 C86.3625,33.6875 85.015,35.035 83.4225,35.035 Z M72.03,26.705 C69.09,26.705 66.7625,28.91 66.7625,31.9725 C66.7625,34.9125 69.09,37.24 72.03,37.24 C74.97,37.24 77.2975,35.035 77.2975,31.9725 C77.2975,28.7875 74.97,26.705 72.03,26.705 Z M72.03,35.035 C70.4375,35.035 69.09,33.6875 69.09,31.85 C69.09,30.0125 70.4375,28.665 72.03,28.665 C73.6225,28.665 74.97,29.89 74.97,31.85 C74.97,33.6875 73.6225,35.035 72.03,35.035 Z M58.4325,28.2975 L58.4325,30.5025 L63.7,30.5025 C63.5775,31.7275 63.0875,32.7075 62.475,33.32 C61.74,34.055 60.515,34.9125 58.4325,34.9125 C55.125,34.9125 52.675,32.34 52.675,29.0325 C52.675,25.725 55.2475,23.1525 58.4325,23.1525 C60.1475,23.1525 61.495,23.8875 62.475,24.745 L64.0675,23.1525 C62.72,21.9275 61.005,20.9475 58.555,20.9475 C54.145,20.9475 50.3475,24.6225 50.3475,29.0325 C50.3475,33.4425 54.145,37.1175 58.555,37.1175 C61.005,37.1175 62.72,36.3825 64.19,34.79 C65.66,33.32 66.15,31.2375 66.15,29.645 C66.15,29.155 66.15,28.665 66.0275,28.2975 L58.4325,28.2975 L58.4325,28.2975 Z M114.0475,30.0125 C113.5575,28.7875 112.3325,26.705 109.6375,26.705 C106.9425,26.705 104.7375,28.7875 104.7375,31.9725 C104.7375,34.9125 106.9425,37.24 109.8825,37.24 C112.21,37.24 113.68,35.77 114.17,34.9125 L112.455,33.6875 C111.8425,34.545 111.1075,35.1575 109.8825,35.1575 C108.6575,35.1575 107.9225,34.6675 107.31,33.565 L114.2925,30.625 L114.0475,30.0125 Z M106.9425,31.7275 C106.9425,29.7675 108.535,28.665 109.6375,28.665 C110.495,28.665 111.3525,29.155 111.5975,29.7675 L106.9425,31.7275 Z M101.185,36.75 L103.5125,36.75 L103.5125,21.4375 L101.185,21.4375 L101.185,36.75 Z M97.51,27.8075 L97.51,27.8075 C96.8975,27.195 95.9175,26.5825 94.6925,26.5825 C92.12,26.5825 89.67,28.91 89.67,31.85 C89.67,34.79 91.9975,36.995 94.6925,36.995 C95.9175,36.995 96.8975,36.3825 97.3875,35.77 L97.51,35.77 L97.51,36.505 C97.51,38.465 96.4075,39.5675 94.6925,39.5675 C93.345,39.5675 92.365,38.5875 92.12,37.73 L90.16,38.5875 C90.7725,39.935 92.2425,41.65 94.815,41.65 C97.51,41.65 99.715,40.0575 99.715,36.26 L99.715,26.95 L97.51,26.95 L97.51,27.8075 L97.51,27.8075 Z M94.815,35.035 C93.2225,35.035 91.875,33.6875 91.875,31.85 C91.875,30.0125 93.2225,28.665 94.815,28.665 C96.4075,28.665 97.6325,30.0125 97.6325,31.85 C97.6325,33.6875 96.4075,35.035 94.815,35.035 Z M124.705,21.4375 L119.1925,21.4375 L119.1925,36.75 L121.52,36.75 L121.52,30.9925 L124.705,30.9925 C127.2775,30.9925 129.7275,29.155 129.7275,26.215 C129.7275,23.275 127.2775,21.4375 124.705,21.4375 Z M124.8275,28.7875 L121.52,28.7875 L121.52,23.52 L124.8275,23.52 C126.5425,23.52 127.5225,24.99 127.5225,26.0925 C127.4,27.44 126.42,28.7875 124.8275,28.7875 Z M138.915,26.5825 C137.2,26.5825 135.485,27.3175 134.8725,28.91 L136.955,29.7675 C137.445,28.91 138.18,28.665 139.0375,28.665 C140.2625,28.665 141.365,29.4 141.4875,30.625 L141.4875,30.7475 C141.12,30.5025 140.14,30.135 139.16,30.135 C136.955,30.135 134.75,31.36 134.75,33.565 C134.75,35.6475 136.5875,36.995 138.5475,36.995 C140.14,36.995 140.875,36.26 141.4875,35.525 L141.61,35.525 L141.61,36.75 L143.815,36.75 L143.815,30.87 C143.57,28.175 141.4875,26.5825 138.915,26.5825 Z M138.67,35.035 C137.935,35.035 136.8325,34.6675 136.8325,33.6875 C136.8325,32.4625 138.18,32.095 139.2825,32.095 C140.2625,32.095 140.7525,32.34 141.365,32.585 C141.12,34.055 139.895,35.035 138.67,35.035 Z M151.5325,26.95 L148.96,33.565 L148.8375,33.565 L146.1425,26.95 L143.6925,26.95 L147.735,36.26 L145.4075,41.405 L147.735,41.405 L153.9825,26.95 L151.5325,26.95 Z M130.9525,36.75 L133.28,36.75 L133.28,21.4375 L130.9525,21.4375 L130.9525,36.75 Z" id="Shape" fill="#FFFFFF"></path>
                    <g transform="translate(11.943750, 8.780311)" id="Path">
                        <path d="M0.79625,0.407188919 C0.42875,0.774688919 0.18375,1.38718892 0.18375,2.12218892 L0.18375,29.1946889 C0.18375,29.9296889 0.42875,30.5421889 0.79625,30.9096889 L0.91875,31.0321889 L16.10875,15.8421889 L16.10875,15.7196889 L16.10875,15.5971889 L0.79625,0.407188919 L0.79625,0.407188919 Z" fill="url(#linearGradient-1)"></path>
                        <path d="M21.13125,20.9871889 L16.10875,15.9646889 L16.10875,15.7196889 L16.10875,15.5971889 L21.13125,10.5746889 L21.25375,10.6971889 L27.25625,14.1271889 C28.97125,15.1071889 28.97125,16.6996889 27.25625,17.6796889 L21.13125,20.9871889 L21.13125,20.9871889 Z" fill="url(#linearGradient-2)"></path>
                        <path d="M21.25375,20.8646889 L16.10875,15.7196889 L0.79625,31.0321889 C1.40875,31.6446889 2.26625,31.6446889 3.36875,31.1546889 L21.25375,20.8646889" fill="url(#linearGradient-3)"></path>
                        <path d="M21.25375,10.5746889 L3.36875,0.407188919 C2.26625,-0.205311081 1.40875,-0.0828110812 0.79625,0.529688919 L16.10875,15.7196889 L21.25375,10.5746889 Z" fill="url(#linearGradient-4)"></path>
                        <g transform="translate(0.000000, 20.742189)" fill="#000000">
                            <path d="M21.13125,0 L3.36875,10.045 C2.38875,10.6575 1.53125,10.535 0.91875,10.045 L0.91875,10.045 L0.79625,10.1675 L0.79625,10.1675 L0.91875,10.29 L0.91875,10.29 C1.53125,10.78 2.38875,10.9025 3.36875,10.29 L21.13125,0 L21.13125,0 Z" opacity="0.2"></path>
                            <path d="M0.79625,10.045 C0.42875,9.6775 0.30625,9.065 0.30625,8.33 L0.30625,8.4525 C0.30625,9.1875 0.55125,9.8 0.91875,10.1675 L0.91875,10.045 L0.79625,10.045 Z" opacity="0.12"></path>
                        </g>
                        <path d="M27.25625,17.3121889 L21.13125,20.7421889 L21.25375,20.8646889 L27.25625,17.4346889 C28.11375,16.9446889 28.48125,16.3321889 28.48125,15.7196889 L28.48125,15.7196889 C28.48125,16.3321889 27.99125,16.8221889 27.25625,17.3121889 Z" fill="#000000" opacity="0.12"></path>
                        <path d="M3.36875,0.529688919 L27.25625,14.1271889 C27.99125,14.6171889 28.48125,15.1071889 28.48125,15.7196889 L28.48125,15.7196889 C28.48125,15.1071889 28.11375,14.4946889 27.25625,14.0046889 L3.36875,0.407188919 C1.65375,-0.572811081 0.30625,0.284688919 0.30625,2.24468892 L0.30625,2.36718892 C0.30625,0.407188919 1.65375,-0.450311081 3.36875,0.529688919 Z" fill="#FFFFFF" opacity="0.25"></path>
                    </g>
                </g>
                <g id="Group" transform="translate(50.470000, 8.575000)" fill="#FFFFFF" stroke="#FFFFFF" stroke-width="0.2">
                    <path d="M2.205,7.4725 C1.715,7.4725 1.225,7.35 0.8575,6.9825 C0.49,6.7375 0.245,6.2475 0,5.7575 L0.8575,5.39 C1.1025,6.125 1.47,6.4925 2.205,6.4925 C2.695,6.4925 2.94,6.37 3.185,6.125 C3.43,5.88 3.5525,5.5125 3.5525,5.0225 L3.5525,0 L4.5325,0 L4.5325,5.0225 C4.5325,5.88 4.2875,6.4925 3.92,6.86 C3.43,7.35 2.94,7.4725 2.205,7.4725 Z" id="Path"></path>
                    <polygon id="Path" points="10.4125 0.8575 7.105 0.8575 7.105 3.185 10.1675 3.185 10.1675 4.0425 7.105 4.0425 7.105 6.37 10.4125 6.37 10.4125 7.35 6.125 7.35 6.125 0 10.4125 0"></polygon>
                    <polygon id="Path" points="14.455 7.35 13.475 7.35 13.475 0.8575 11.3925 0.8575 11.3925 0 16.415 0 16.415 0.8575 14.455 0.8575"></polygon>
                    <polygon id="Path" points="17.2725 7.35 17.2725 6.37 21.1925 0.8575 17.395 0.8575 17.395 0 22.295 0 22.295 0.98 18.375 6.4925 22.295 6.4925 22.295 7.35"></polygon>
                    <polygon id="Path" points="26.0925 7.35 25.1125 7.35 25.1125 0.8575 23.03 0.8575 23.03 0 28.0525 0 28.0525 0.8575 25.97 0.8575 25.97 7.35"></polygon>
                    <path d="M31.85,7.35 L31.85,0 L34.545,0 C35.1575,0 35.6475,0.245 36.015,0.6125 C36.3825,0.98 36.6275,1.47 36.6275,2.0825 C36.6275,2.45 36.505,2.695 36.3825,3.0625 C36.26,3.3075 36.015,3.5525 35.6475,3.675 L35.6475,3.675 C36.015,3.7975 36.26,4.0425 36.505,4.2875 C36.75,4.5325 36.8725,4.9 36.8725,5.39 C36.8725,6.0025 36.6275,6.4925 36.26,6.86 C35.77,7.105 35.28,7.35 34.6675,7.35 L31.85,7.35 Z M32.83,3.185 L34.545,3.185 C34.9125,3.185 35.1575,3.0625 35.4025,2.8175 C35.6475,2.5725 35.77,2.3275 35.77,2.0825 C35.77,1.8375 35.6475,1.5925 35.4025,1.3475 C35.1575,1.1025 34.9125,0.98 34.545,0.98 L32.83,0.98 L32.83,3.185 Z M32.83,6.4925 L34.79,6.4925 C35.1575,6.4925 35.4025,6.37 35.6475,6.125 C35.8925,5.88 36.015,5.635 36.015,5.2675 C36.015,5.0225 35.8925,4.655 35.6475,4.41 C35.4025,4.165 35.1575,4.0425 34.79,4.0425 L32.83,4.0425 L32.83,6.4925 Z" id="Shape"></path>
                    <polygon id="Path" points="42.5075 0.8575 39.2 0.8575 39.2 3.185 42.2625 3.185 42.2625 4.0425 39.2 4.0425 39.2 6.37 42.5075 6.37 42.5075 7.35 38.22 7.35 38.22 0 42.5075 0"></polygon>
                    <polygon id="Path" points="43.9775 7.35 43.9775 0 44.9575 0 44.9575 7.35"></polygon>
                </g>
            </g>
        </g>
    </g>
</svg>